<svg width="32" height="32" viewBox="0 0 32 32" fill="none" xmlns="http://www.w3.org/2000/svg">
<path fill-rule="evenodd" clip-rule="evenodd" d="M2 16C2 15.4477 2.44772 15 3 15H29C29.5523 15 30 15.4477 30 16C30 16.5523 29.5523 17 29 17H3C2.44772 17 2 16.5523 2 16Z" fill="#EBEBEB"/>
<path fill-rule="evenodd" clip-rule="evenodd" d="M23 9C23 7.89543 23.8954 7 25 7C26.1046 7 27 7.89543 27 9V23C27 24.1046 26.1046 25 25 25C23.8954 25 23 24.1046 23 23V9Z" fill="#EBEBEB"/>
<path fill-rule="evenodd" clip-rule="evenodd" d="M5 9C5 7.89543 5.89543 7 7 7C8.10457 7 9 7.89543 9 9V23C9 24.1046 8.10457 25 7 25C5.89543 25 5 24.1046 5 23V9Z" fill="#EBEBEB"/>
<path fill-rule="evenodd" clip-rule="evenodd" d="M1 12.5C1 11.6716 1.67157 11 2.5 11C3.32843 11 4 11.6716 4 12.5V19.5C4 20.3284 3.32843 21 2.5 21C1.67157 21 1 20.3284 1 19.5V12.5Z" fill="#EBEBEB"/>
<path fill-rule="evenodd" clip-rule="evenodd" d="M28 12.5C28 11.6716 28.6716 11 29.5 11C30.3284 11 31 11.6716 31 12.5V19.5C31 20.3284 30.3284 21 29.5 21C28.6716 21 28 20.3284 28 19.5V12.5Z" fill="#EBEBEB"/>
</svg>
