<svg width="32" height="32" viewBox="0 0 32 32" fill="none" xmlns="http://www.w3.org/2000/svg">
<path d="M24 22H11.5225L8.96 24.1875L6.3975 22H1V23.5C1 25.4119 2.32063 26.9694 3.95375 27C4.10563 27.945 4.47313 28.7987 5.02625 29.4669C5.84438 30.455 7.03375 31 8.375 31H16.625C17.9663 31 19.1556 30.455 19.9738 29.4656C20.5269 28.7975 20.8944 27.9438 21.0463 26.9988C21.9138 26.9831 22.6931 26.5363 23.2338 25.8344C23.7387 25.1616 24.008 24.3412 24 23.5V22ZM6.5625 20L8.95813 21.7619L11.375 20H24V19.5C23.9993 18.9239 23.8 18.3656 23.4357 17.9194C23.0714 17.4731 22.5643 17.166 22 17.05C21.9488 15.1944 21.1875 13.6413 19.7806 12.55C18.4794 11.535 16.7406 11 14.75 11H10.25C5.98625 11 3.09813 13.4231 3 17.05C2.4357 17.166 1.92865 17.4731 1.56433 17.9194C1.20001 18.3656 1.0007 18.9239 1 19.5V20H6.5625Z" fill="#EBEBEB"/>
<path d="M28.9425 6H24.2806L24.8381 3.77125L27.625 2.8125L27 1L23.125 2.25L22.2194 6H13V8H14.1719L14.2881 9H14.75C17.1875 9 19.3537 9.68125 21.0075 10.97C21.9273 11.6787 22.673 12.5884 23.1875 13.6294C23.5046 14.2752 23.7303 14.962 23.8581 15.67C24.7894 16.2434 25.4801 17.1364 25.8009 18.182C26.1217 19.2275 26.0507 20.3542 25.6012 21.3512C25.8646 22.037 25.9997 22.7654 26 23.5C26 24.8962 25.525 26.2269 24.6625 27.2469C24.1287 27.8827 23.445 28.3757 22.6731 28.6812C22.4101 29.4309 22.0181 30.1289 21.515 30.7437C21.4412 30.8325 21.3656 30.9194 21.2881 31.0031H26C27 31.0031 27.4375 30.5031 27.5625 29.5656L29.8375 8.00312H31V6H28.9425Z" fill="#EBEBEB"/>
</svg>
