<svg width="32" height="32" viewBox="0 0 32 32" fill="none" xmlns="http://www.w3.org/2000/svg">
<path d="M16.3479 6.32998C16.2548 6.24096 16.131 6.19128 16.0023 6.19128C15.8735 6.19128 15.7497 6.24096 15.6566 6.32998L4.15039 17.3219C4.10152 17.3686 4.06265 17.4248 4.03611 17.487C4.00958 17.5492 3.99594 17.6161 3.99602 17.6837L3.99414 28C3.99414 28.5304 4.20485 29.0391 4.57993 29.4142C4.955 29.7893 5.46371 30 5.99414 30H12.0004C12.2656 30 12.52 29.8946 12.7075 29.7071C12.895 29.5195 13.0004 29.2652 13.0004 29V20.5C13.0004 20.3674 13.0531 20.2402 13.1468 20.1464C13.2406 20.0527 13.3678 20 13.5004 20H18.5004C18.633 20 18.7602 20.0527 18.8539 20.1464C18.9477 20.2402 19.0004 20.3674 19.0004 20.5V29C19.0004 29.2652 19.1057 29.5195 19.2933 29.7071C19.4808 29.8946 19.7352 30 20.0004 30H26.0041C26.5346 30 27.0433 29.7893 27.4184 29.4142C27.7934 29.0391 28.0041 28.5304 28.0041 28V17.6837C28.0042 17.6161 27.9906 17.5492 27.964 17.487C27.9375 17.4248 27.8986 17.3686 27.8498 17.3219L16.3479 6.32998Z" fill="#EBEBEB"/>
<path d="M30.6819 15.2594L26.0069 10.7869V4C26.0069 3.73478 25.9015 3.48043 25.714 3.29289C25.5265 3.10536 25.2721 3 25.0069 3H22.0069C21.7417 3 21.4873 3.10536 21.2998 3.29289C21.1123 3.48043 21.0069 3.73478 21.0069 4V6L17.3869 2.53875C17.0481 2.19625 16.5444 2 16 2C15.4575 2 14.955 2.19625 14.6163 2.53938L1.32252 15.2581C0.933774 15.6331 0.885024 16.25 1.23877 16.6563C1.32761 16.7588 1.43637 16.8422 1.55846 16.9014C1.68055 16.9605 1.8134 16.9942 1.94892 17.0004C2.08445 17.0066 2.21982 16.9852 2.3468 16.9374C2.47378 16.8896 2.5897 16.8165 2.68752 16.7225L15.6563 4.33C15.7493 4.24099 15.8731 4.19131 16.0019 4.19131C16.1307 4.19131 16.2545 4.24099 16.3475 4.33L29.3175 16.7225C29.5086 16.9057 29.7645 17.0057 30.0291 17.0006C30.2938 16.9954 30.5456 16.8855 30.7294 16.695C31.1131 16.2975 31.0813 15.6413 30.6819 15.2594Z" fill="#EBEBEB"/>
</svg>
