<svg width="24" height="24" viewBox="0 0 24 24" fill="none" xmlns="http://www.w3.org/2000/svg">
<path fill-rule="evenodd" clip-rule="evenodd" d="M8.81802 2.11489C9.66193 1.27098 10.8065 0.796875 12 0.796875C13.1935 0.796875 14.3381 1.27098 15.182 2.11489C16.0259 2.95881 16.5 4.1034 16.5 5.29688V9.75C16.5 10.1642 16.1642 10.5 15.75 10.5C15.3358 10.5 15 10.1642 15 9.75V5.29688C15 4.50123 14.6839 3.73816 14.1213 3.17555C13.5587 2.61295 12.7956 2.29688 12 2.29688C11.2044 2.29688 10.4413 2.61295 9.87868 3.17555C9.31607 3.73816 9 4.50123 9 5.29688V9.75C9 10.1642 8.66421 10.5 8.25 10.5C7.83579 10.5 7.5 10.1642 7.5 9.75V5.29688C7.5 4.1034 7.97411 2.95881 8.81802 2.11489Z" fill="#6B7280"/>
<path fill-rule="evenodd" clip-rule="evenodd" d="M6.75 10.5C5.92157 10.5 5.25 11.1716 5.25 12V20.25C5.25 21.0784 5.92157 21.75 6.75 21.75H17.25C18.0784 21.75 18.75 21.0784 18.75 20.25V12C18.75 11.1716 18.0784 10.5 17.25 10.5H6.75ZM3.75 12C3.75 10.3431 5.09315 9 6.75 9H17.25C18.9069 9 20.25 10.3431 20.25 12V20.25C20.25 21.9069 18.9069 23.25 17.25 23.25H6.75C5.09315 23.25 3.75 21.9069 3.75 20.25V12Z" fill="#6B7280"/>
</svg>
