<svg width="32" height="32" viewBox="0 0 32 32" fill="none" xmlns="http://www.w3.org/2000/svg">
<path d="M16 3C8.83187 3 3 8.83187 3 16C3 23.1681 8.83187 29 16 29C23.1681 29 29 23.1681 29 16C29 8.83187 23.1681 3 16 3ZM16.125 9C17.015 9 17.885 9.26392 18.6251 9.75839C19.3651 10.2529 19.9419 10.9557 20.2825 11.7779C20.6231 12.6002 20.7122 13.505 20.5385 14.3779C20.3649 15.2508 19.9363 16.0526 19.307 16.682C18.6776 17.3113 17.8758 17.7399 17.0029 17.9135C16.13 18.0872 15.2252 17.9981 14.4029 17.6575C13.5807 17.3169 12.8779 16.7401 12.3834 16.0001C11.8889 15.26 11.625 14.39 11.625 13.5C11.625 12.3065 12.0991 11.1619 12.943 10.318C13.7869 9.47411 14.9315 9 16.125 9ZM16 27C14.4828 27.0006 12.9819 26.6866 11.5923 26.0777C10.2026 25.4688 8.95429 24.5783 7.92625 23.4625C8.47875 20.6012 13.4412 20 16 20C18.5588 20 23.5212 20.6013 24.0737 23.4619C23.0458 24.5779 21.7976 25.4686 20.4079 26.0776C19.0182 26.6866 17.5173 27.0007 16 27Z" fill="#EBEBEB"/>
</svg>
